PathFileType	4	(X/Y/Z)	c:/Users/goper/Files/vsCode/490R/osim_files/C12/C12_Fast_03.trc
DataRate	CameraRate	NumFrames	NumMarkers	Units                	OrigDataRate	OrigDataStartFrame	OrigNumFrames
120.00	120.00	9	36	mm	120.0	599	1196
                Frame#	Time	LPSIS			LASIS			LTH1			LTH2			LTH3			LTH4			LLFE			LMFE			LSH1			LSH2			LSH3			LSH4			LLMAL			LMMAL			LCAL			LMTP5			LTOE			LMTP1			RPSIS			RASIS			RTH1			RTH2			RTH3			RTH4			RLFE			RMFE			RSH1			RSH2			RSH3			RSH4			RLMAL			RMMAL			RCAL			RMTP1			RTOE			RMTP5		
		X1	Y1	Z1	X2	Y2	Z2	X3	Y3	Z3	X4	Y4	Z4	X5	Y5	Z5	X6	Y6	Z6	X7	Y7	Z7	X8	Y8	Z8	X9	Y9	Z9	X10	Y10	Z10	X11	Y11	Z11	X12	Y12	Z12	X13	Y13	Z13	X14	Y14	Z14	X15	Y15	Z15	X16	Y16	Z16	X17	Y17	Z17	X18	Y18	Z18	X19	Y19	Z19	X20	Y20	Z20	X21	Y21	Z21	X22	Y22	Z22	X23	Y23	Z23	X24	Y24	Z24	X25	Y25	Z25	X26	Y26	Z26	X27	Y27	Z27	X28	Y28	Z28	X29	Y29	Z29	X30	Y30	Z30	X31	Y31	Z31	X32	Y32	Z32	X33	Y33	Z33	X34	Y34	Z34	X35	Y35	Z35	X36	Y36	Z36

599	4.98333	-252.64049	1080.43140	299.90488	-424.29553	1039.67627	358.72049	-420.09903	764.58972	426.16812	-442.71915	726.58948	425.96414	-474.67764	793.38434	431.39908	-491.28494	751.81781	432.33572	-543.59326	575.66901	395.39175	-560.27136	570.76495	270.62476	-464.73593	497.22412	403.05890	-450.91223	452.33447	409.75992	-521.51361	474.77084	407.37216	-498.52823	431.58582	409.53592	-375.38199	163.90042	362.66995	-402.61768	163.58904	287.37204	-314.81519	161.67310	311.54276	-473.12421	57.74497	401.50134	-541.59619	73.08073	344.22906	-510.46140	52.95681	298.57471	-246.86125	1083.70715	187.06755	-425.48721	1046.97717	107.97153	-312.11969	757.19507	64.43078	-313.77798	712.86200	75.42026	-374.63013	752.27570	67.33516	-366.83673	706.14764	75.71221	-299.20605	535.16327	120.57967	-302.86795	542.42224	255.86194	-227.08647	442.69861	106.42075	-225.38428	399.10809	102.15852	-289.05957	431.59125	112.93501	-277.12231	390.62833	106.51454	-215.36020	109.79180	161.38060	-230.75075	120.69701	243.06665	-141.11908	78.00236	200.03964	-352.81589	46.91976	243.28003	-396.67056	63.58344	211.71280	-360.26184	38.29035	135.92378
600	4.99167	-264.84241	1078.86035	301.13406	-436.99857	1038.36682	358.01193	-435.15115	763.37817	426.14325	-458.99179	725.55579	426.15884	-489.70093	792.93188	430.73996	-506.44260	751.55511	431.37909	-558.93018	575.43097	393.34174	-574.73138	570.86932	268.64279	-483.02490	493.51834	401.79575	-471.06824	447.94687	408.18277	-540.56927	473.92975	405.56799	-519.44116	429.09961	408.12418	-411.72855	155.12672	362.54572	-438.47723	156.18376	287.08035	-353.07303	147.09532	310.13791	-515.73212	55.81364	401.46118	-582.94263	74.88981	343.62689	-552.98260	52.56457	298.60605	-257.29095	1083.34717	188.08835	-437.02420	1045.92773	107.32590	-319.06415	757.17987	64.51459	-319.86060	712.89209	75.55012	-381.60471	751.19403	67.47308	-373.00876	705.11102	76.01630	-301.29831	535.56567	120.53624	-305.73868	541.94214	254.97815	-228.85385	443.40167	106.39580	-226.95395	399.85034	102.09119	-290.84253	432.03439	112.99045	-278.58221	391.18735	106.59534	-215.64673	110.46558	161.52220	-231.09772	121.14493	243.11455	-141.49648	78.68927	199.99980	-353.31223	46.63584	243.01968	-396.84827	63.26065	211.77138	-360.33377	38.19873	135.86113
601	5.00000	-277.27356	1076.88928	302.44040	-449.82614	1036.92236	357.38788	-450.07758	761.99744	425.57367	-473.97809	724.22919	424.95340	-504.26837	791.77216	429.97995	-522.08105	751.30438	429.82507	-573.71637	574.56128	391.21133	-588.40814	570.32770	266.63275	-501.04050	489.21741	400.71167	-490.89120	443.29480	406.91141	-559.43475	472.49850	403.84515	-542.03192	428.16281	407.34665	-448.32425	146.82486	362.44998	-474.58945	149.21194	286.73874	-391.85519	133.89769	309.99838	-558.83252	54.91718	401.37405	-624.12256	77.63273	342.88412	-595.45300	53.13376	298.24127	-270.05560	1081.51599	189.39923	-448.38895	1044.33325	106.66203	-326.24454	756.99365	64.36409	-326.04730	712.48395	75.69550	-388.50323	749.86780	67.57716	-379.02591	704.28210	76.31958	-303.67337	535.90424	120.54604	-309.15564	541.70337	254.57819	-230.87881	444.05173	106.40485	-228.69620	400.49002	102.10279	-292.69156	432.41251	113.01167	-280.37329	391.64258	106.59698	-216.00169	111.08314	161.71645	-231.46878	121.55776	243.14764	-141.99677	79.43147	200.16431	-353.40033	46.53025	242.99071	-396.97968	63.07227	211.64377	-360.29211	38.03908	135.85036
602	5.00833	-289.68256	1074.67224	303.74997	-462.58615	1034.99634	356.97580	-464.62164	760.08679	424.67477	-488.57480	722.45880	423.55176	-518.79443	789.97003	429.09128	-536.53778	749.54059	428.52759	-588.02740	573.05322	388.97925	-601.68225	569.24207	264.45999	-518.16650	484.66602	400.16907	-510.41519	438.60037	406.30548	-578.07867	470.69360	402.11002	-563.02869	425.42184	405.86591	-485.54129	139.16293	362.36157	-510.20401	143.01695	284.98611	-429.33249	122.40290	310.42126	-601.68109	54.89925	400.93198	-664.91162	81.38759	341.95142	-637.68994	54.70630	297.54123	-282.01093	1079.75708	190.69986	-460.11877	1042.64941	106.05626	-333.32809	756.73682	64.80796	-332.12076	711.96185	75.68040	-395.34909	748.35498	67.67278	-385.00937	702.73059	76.37197	-306.51886	536.10657	120.53398	-312.81808	541.29340	254.04878	-233.06766	444.69482	106.44347	-229.72459	402.06082	102.71540	-294.63821	432.98044	113.05341	-282.27795	392.01602	106.55163	-216.27657	111.71062	161.71236	-231.92439	121.95868	243.21202	-142.56252	80.05084	200.19458	-353.49564	46.38834	243.01543	-397.20276	62.77166	211.56134	-360.34421	37.87199	135.76930
603	5.01667	-302.30457	1072.16553	305.02322	-475.24088	1032.89465	356.71097	-478.75699	757.80432	423.59488	-502.81577	720.12512	421.94104	-533.04156	787.59534	428.01611	-550.73657	747.03552	426.78372	-601.83398	570.99005	386.69897	-615.16431	566.74817	262.06711	-536.29138	477.96558	397.96280	-533.44788	431.08170	405.56262	-596.31262	468.17316	400.70789	-584.20471	422.59030	404.33737	-522.94092	132.23036	362.22336	-546.81281	137.40033	284.48917	-467.38834	111.63580	310.81171	-644.55878	55.69957	399.93997	-705.44495	85.91885	340.53201	-679.43811	57.33948	296.44797	-293.34085	1078.05774	192.11514	-471.81900	1040.51611	105.67625	-340.27567	756.29340	64.88730	-338.48212	711.67725	75.77119	-402.19357	746.78473	67.69699	-391.02182	701.58319	76.43516	-309.38623	536.21887	120.26412	-316.38870	541.09991	254.35727	-235.44319	445.31821	106.51547	-231.90300	402.72220	102.70544	-297.11899	433.08316	113.13142	-284.32785	392.36282	106.56729	-216.63123	112.35970	161.88284	-232.35812	122.33040	243.30492	-142.85986	81.10742	200.47493	-353.67697	46.36982	242.93712	-397.06244	62.84133	211.81503	-360.40726	37.71630	135.69934
604	5.02500	-314.78134	1069.58899	306.33707	-488.40909	1030.68616	356.52655	-492.49643	755.03418	422.32855	-516.25256	717.30627	420.09827	-546.79407	784.68610	426.78378	-564.42609	744.18805	424.99435	-614.92285	568.24316	384.44461	-626.83350	564.64917	260.04218	-553.82159	472.27917	397.04721	-553.36456	424.56851	404.53915	-614.47815	465.96082	398.75522	-604.53394	419.39749	403.11899	-560.48383	126.12984	361.96738	-582.95844	132.76390	284.38367	-505.81302	101.76207	311.28214	-687.00262	57.55552	398.53790	-745.31537	91.35199	338.14059	-720.53308	60.87630	294.69943	-306.31339	1075.42639	193.36932	-483.46930	1037.99304	105.17611	-347.27310	755.80634	64.85960	-344.27570	711.39697	76.05123	-408.95193	745.17670	67.52219	-397.10104	699.92615	76.39244	-313.00742	536.20905	120.28531	-320.33539	540.54547	254.37685	-238.04451	445.95758	106.60767	-234.29947	403.30789	102.81242	-299.73062	433.28073	113.10462	-286.57162	392.62836	106.55389	-217.29175	113.08199	162.26035	-232.64032	123.14381	243.36852	-143.09583	82.29580	200.92326	-353.78058	46.29877	242.85930	-397.81683	62.13158	211.47786	-360.51657	37.57400	135.61757
605	5.03333	-327.43948	1066.75073	307.59576	-501.70691	1028.31274	356.51642	-505.69562	751.89465	421.02142	-529.26709	714.07019	418.29446	-560.18207	781.23492	425.47864	-577.56470	740.58630	423.22107	-627.43927	565.07532	382.15494	-638.53589	561.81866	257.55237	-571.45746	466.41876	396.12762	-573.87036	418.65726	403.67346	-632.81891	463.73557	396.78790	-625.51831	416.90317	400.92096	-598.25555	121.03430	361.55185	-619.09698	128.85716	283.69809	-544.24896	92.91923	311.71558	-729.05981	60.97570	396.96695	-784.92273	97.91193	336.15820	-761.26929	65.85236	292.63644	-321.92181	1070.69360	193.31889	-495.34253	1035.37549	105.00538	-354.30753	755.23676	64.86139	-351.29398	711.01801	74.46127	-415.72528	743.62537	67.24437	-403.21008	698.83313	76.12720	-317.02167	536.12061	120.38242	-324.72504	540.10547	254.33693	-240.98537	446.62289	106.69471	-236.95642	403.90714	102.94337	-302.49976	433.36984	113.07924	-289.08829	392.81601	106.56555	-217.78018	113.80469	162.43474	-233.53320	123.68088	243.14850	-143.50055	83.29126	201.06612	-353.90955	46.29196	242.73138	-398.02866	61.93190	211.32660	-360.55383	37.42657	135.53407
606	5.04167	-340.30362	1063.82629	308.66449	-514.54846	1025.59998	356.54623	-518.32770	748.38245	419.64099	-541.72650	710.37537	416.47183	-573.11633	777.22705	424.04828	-590.14032	736.58466	421.28763	-639.64679	561.35284	379.92770	-649.75726	558.01794	255.00995	-589.11316	460.47980	395.09738	-594.41309	413.01782	402.63055	-650.40411	461.41974	394.52832	-646.00775	414.21219	399.12546	-635.69464	117.06526	361.01956	-654.99597	126.01057	282.85294	-582.83820	85.30907	312.19443	-770.43835	65.95061	395.10635	-823.45233	105.74650	333.76224	-801.20367	72.60548	290.50363	-331.57489	1069.80981	196.17372	-507.90167	1032.79395	105.13364	-361.44397	754.75500	64.87772	-357.82587	710.57520	74.52443	-422.78763	742.19489	66.92206	-409.56665	697.28778	75.74986	-321.40543	535.99084	120.44570	-329.29398	539.71375	254.46059	-244.36360	447.28262	106.88240	-240.01344	404.61246	103.07404	-305.80002	433.43805	112.99537	-292.10117	392.93414	106.57073	-218.09624	114.52374	162.33524	-234.10513	124.21284	243.15195	-144.15851	84.00148	200.91112	-353.82233	46.47342	242.76820	-398.21829	61.72379	211.15414	-360.59109	37.23588	135.43697
607	5.05000	-353.12363	1060.70874	309.68900	-527.96851	1022.75281	356.70847	-530.59222	744.36615	418.26706	-553.55713	706.23553	414.83212	-585.60632	772.72675	422.67816	-602.27747	731.92200	419.38748	-651.39539	557.24719	377.70422	-660.37781	553.67767	252.37631	-606.82269	454.71735	393.89633	-614.80243	407.71655	401.46429	-667.79688	459.18698	391.97739	-666.21252	411.90002	396.98422	-672.88751	114.32299	360.38882	-691.11768	123.66727	281.58606	-621.11243	78.98557	312.65601	-810.71539	72.63346	393.08182	-860.16357	115.04244	330.49844	-839.93658	79.83993	288.20697	-344.04517	1067.03320	197.21429	-519.41058	1029.76001	104.57602	-368.88474	754.27087	65.09804	-365.42557	709.75543	74.15470	-430.02106	740.90179	66.60479	-416.17755	696.48682	75.40548	-326.39786	535.84595	120.67733	-334.39673	539.28210	254.50967	-248.17398	447.94254	107.07992	-243.38269	405.33481	103.21901	-309.57996	433.42682	113.01409	-295.20581	393.08426	106.49651	-218.67969	115.41320	162.42558	-234.75394	124.77773	243.19412	-144.65134	85.12094	201.09335	-353.91202	46.52143	242.62492	-398.43188	61.45313	210.97742	-360.62326	37.02684	135.35912
